HIERARCHY
ROOT Hips
{
  OFFSET 1.44925e-005 102.336 -0.101585
  CHANNELS 6 Xposition Yposition Zposition Zrotation Xrotation Yrotation
  JOINT LeftUpLeg
  {
    OFFSET 8.9458 -8.66707 0.101652
    CHANNELS 3 Zrotation Xrotation Yrotation
    JOINT LeftLeg
    {
      OFFSET 0 -44.4227 1.3727
      CHANNELS 3 Zrotation Xrotation Yrotation
      JOINT LeftFoot
      {
        OFFSET -0.253549 -42.0924 -1.46059
        CHANNELS 3 Zrotation Xrotation Yrotation
        JOINT LeftToes
        {
          OFFSET -0.04 -4.41509 8.4991
          CHANNELS 3 Zrotation Xrotation Yrotation
          End Site
          {
            OFFSET 0.08 -0.047448 9.77979
          }
        }
      }
    }
  }
  JOINT Spine
  {
    OFFSET 0 11.8905 0
    CHANNELS 3 Zrotation Xrotation Yrotation
    JOINT Spine1
    {
      OFFSET 0 25.6574 0.127663
      CHANNELS 3 Zrotation Xrotation Yrotation
      JOINT RightShoulder
      {
        OFFSET -8.99 -0.362252 -0.22
        CHANNELS 3 Zrotation Xrotation Yrotation
        JOINT RightArm
        {
          OFFSET -10.2827 -0.00338 0.322123
          CHANNELS 3 Zrotation Xrotation Yrotation
          JOINT RightForeArm
          {
            OFFSET -26.364 0.099144 -1.42434
            CHANNELS 3 Zrotation Xrotation Yrotation
            JOINT RightHand
            {
              OFFSET -22.0324 0.085362 1.02216
              CHANNELS 3 Zrotation Xrotation Yrotation
              End Site
              {
                OFFSET -13.3284 -0.6 1.50291
              }
            }
          }
        }
      }
      JOINT LeftShoulder1
      {
        OFFSET 8.99 -0.362252 -0.22
        CHANNELS 3 Zrotation Xrotation Yrotation
        JOINT LeftArm
        {
          OFFSET 10.2827 -0.00337999 0.322123
          CHANNELS 3 Zrotation Xrotation Yrotation
          JOINT LeftForeArm
          {
            OFFSET 26.2597 0.099144 -1.42434
            CHANNELS 3 Zrotation Xrotation Yrotation
            JOINT LeftHand
            {
              OFFSET 22.0902 0.085362 1.02216
              CHANNELS 3 Zrotation Xrotation Yrotation
              End Site
              {
                OFFSET 13.419 -0.6 1.50291
              }
            }
          }
        }
      }
      JOINT Head
      {
        OFFSET 0 8.73416 0.011341
        CHANNELS 3 Zrotation Xrotation Yrotation
        End Site
        {
          OFFSET -0.29 12.7742 2.51395
        }
      }
    }
  }
  JOINT RightUpLeg
  {
    OFFSET -8.9458 -8.66707 0.101652
    CHANNELS 3 Zrotation Xrotation Yrotation
    JOINT RightLeg
    {
      OFFSET 0 -44.4227 1.3727
      CHANNELS 3 Zrotation Xrotation Yrotation
      JOINT RightFoot
      {
        OFFSET 0.253549 -42.0924 -1.46059
        CHANNELS 3 Zrotation Xrotation Yrotation
        JOINT RightToes
        {
          OFFSET 0.04 -4.41509 8.4991
          CHANNELS 3 Zrotation Xrotation Yrotation
          End Site
          {
            OFFSET -0.08 -0.137448 9.77979
          }
        }
      }
    }
  }
}
MOTION
Frames:	19
Frame Time:	0.0333333
18.174 99.1593 8.79014 0.312892 -4.18854 -81.5242 -4.1141 -2.70595 -8.71071 1.53005 44.1021 23.9977 -10.2683 -21.6709 -1.17964 -1.31417e-009 8.75239e-006 -1.47403e-008 6.37502 19.0918 -2.2921 -2.74496 -4.64557 -0.769463 35.1304 1.70511 0.141316 38.7105 -15.6963 10.2523 6.59475 24.2385 14.1778 -9.2941 9.53866 -0.554922 -45.9389 3.76003 -3.6215 -27.4515 -10.4442 16.8256 3.54154 31.4156 -26.3517 5.82328 9.61819 -0.917488 -3.95481 -23.4104 -10.6931 -8.22885 -22.5755 -8.90295 2.30747 19.2685 -14.4908 -0.887549 -0.592233 -0.0707017 0.0462048 0.000530889 0.662642 
20.4726 98.4381 9.15981 0.619671 -3.71419 -81.5446 -3.07998 0.924505 -8.81646 1.47481 43.2678 23.1139 -10.5217 -22.4763 -1.28466 -1.31417e-009 8.75239e-006 -1.47403e-008 6.72392 18.5174 -2.43134 -2.47282 -4.37909 -0.879023 35.1104 1.70593 0.151117 38.2945 -17.2441 9.30669 6.77322 25.8357 13.2775 -8.9087 9.56329 -0.678777 -46.0441 3.77592 -3.63569 -27.6601 -10.2983 16.4823 3.69137 31.5722 -26.6441 5.82328 9.61819 -0.917488 -3.80299 -23.6887 -10.0134 -8.27446 -24.7441 -8.95251 2.14337 19.6703 -14.5557 -0.529356 0.747996 -0.0776675 0.0462048 0.000530889 0.662642 
22.9722 97.5827 9.60391 0.834757 -3.28433 -81.5556 -2.24731 4.55655 -9.0649 1.3646 40.9372 21.5459 -10.4232 -23.2018 -1.33777 -1.31417e-009 8.75239e-006 -1.47403e-008 6.91158 17.9198 -2.60399 -2.17346 -4.06886 -1.0815 35.0403 1.70731 0.157739 37.8963 -18.6911 8.26402 6.80893 27.0849 12.6958 -8.75977 9.57637 -0.783292 -46.0151 3.78379 -3.65492 -27.8106 -10.4389 16.2394 4.07792 31.9387 -27.4545 5.82328 9.61819 -0.917488 -3.64903 -23.7814 -9.35175 -8.54523 -26.9409 -9.49783 2.05802 20.1272 -14.2971 -0.267648 2.29135 -0.0829553 0.0462048 0.000530889 0.662642 
25.6801 96.635 10.119 0.896849 -2.96493 -81.3259 -1.61827 7.90048 -9.3474 1.20657 37.6168 19.015 -11.2029 -23.1141 -1.43755 -1.31417e-009 8.75239e-006 -1.47403e-008 6.96699 17.3065 -2.85635 -1.91482 -3.68173 -1.40676 35.0337 1.70891 0.150922 37.2173 -18.5258 6.64651 6.67894 25.8259 13.2698 -9.0535 9.57086 -0.871972 -45.8068 3.77205 -3.66419 -27.8731 -11.0207 16.0069 4.6473 32.4589 -28.5774 5.82328 9.61819 -0.917488 -3.5917 -23.6088 -8.83593 -9.13282 -28.9269 -10.3697 1.92839 20.4427 -13.9965 0.301109 3.52245 -0.12778 0.0462048 0.000530889 0.662642 
28.6065 95.6858 10.6821 0.645076 -2.75067 -80.6548 -1.06918 10.8002 -9.31718 1.03855 33.6861 16.3176 -13.2839 -23.3806 -1.76847 -1.31417e-009 8.75239e-006 -1.47403e-008 6.79946 16.7974 -3.19073 -1.58266 -3.27453 -1.88278 35.1229 1.71042 0.129597 36.3212 -16.3148 4.18821 6.5051 21.5484 15.2198 -9.44217 9.57143 -1.08868 -45.5727 3.75711 -3.67132 -27.6183 -12.2011 15.8757 5.56891 33.268 -30.2237 5.82328 9.61819 -0.917488 -3.46271 -22.9784 -8.50608 -10.0964 -30.2938 -11.2333 1.84194 20.2118 -14.4978 2.15366 4.69567 -0.325993 0.0462048 0.000530889 0.662642 
31.8304 94.8156 11.2784 0.00550793 -2.82075 -79.4795 -0.908347 13.059 -8.84029 0.931869 29.5909 14.8796 -14.8017 -26.2647 -2.36269 -1.31417e-009 8.75239e-006 -1.47403e-008 5.94231 16.5939 -3.6093 -0.862553 -2.86339 -2.60094 35.326 1.71144 0.103113 35.6725 -13.8373 1.36618 6.31468 17.0682 17.7514 -9.5878 9.59182 -1.438 -45.4712 3.76218 -3.69646 -26.9093 -13.9906 16.0102 7.13845 34.4454 -32.9595 5.82328 9.61819 -0.917488 -3.0261 -21.9769 -8.24465 -11.7334 -30.7201 -12.1583 2.03827 19.1667 -15.9685 5.65994 5.98382 -0.75793 0.0462048 0.000530889 0.662642 
35.4573 94.1191 11.8832 -1.01898 -3.47425 -78.0006 -1.68996 14.2912 -8.34909 0.922846 26.3682 15.2385 -14.0012 -31.4958 -2.88883 -1.31417e-009 8.75239e-006 -1.47403e-008 3.90509 16.9003 -4.00181 0.495989 -2.20444 -3.52152 35.7025 1.71455 0.0780948 35.4592 -13.1528 -1.11206 6.00569 14.9416 19.9003 -9.64641 9.60902 -1.69478 -45.4462 3.77695 -3.72852 -26.0607 -15.7537 15.9824 9.16607 35.6035 -36.5195 5.82328 9.61819 -0.917488 -2.27887 -21.0816 -8.01132 -14.018 -29.8882 -12.8145 2.48898 16.976 -17.7585 9.76624 5.52559 -1.19988 0.0462048 0.000530889 0.662642 
39.3562 93.7284 12.432 -2.35567 -4.76731 -76.8901 -3.58711 14.1787 -8.32832 0.985261 25.4927 16.7656 -11.7283 -35.811 -2.87181 -1.31417e-009 8.75239e-006 -1.47403e-008 0.863619 17.6676 -4.00396 2.02586 -1.18147 -4.20993 36.2602 1.72351 0.0508443 35.6325 -14.0356 -3.02942 5.84771 14.3375 21.2955 -9.82563 9.60853 -1.76363 -45.3511 3.77268 -3.73495 -25.4839 -16.6644 15.0052 10.8279 36.3255 -39.4019 5.82328 9.61819 -0.917488 -1.40497 -20.581 -7.98232 -16.1318 -27.6373 -13.0049 2.58463 13.0657 -18.9168 12.9585 1.26302 -1.12184 0.0462048 0.000530889 0.662642 
43.1358 93.6824 12.8916 -3.78591 -6.16887 -77.0459 -6.02685 12.8767 -8.29761 1.04734 27.2854 18.2106 -10.3323 -37.1797 -2.63437 -1.31417e-009 8.75239e-006 -1.47403e-008 -1.92068 18.4171 -3.38266 2.48481 -0.238543 -4.08184 36.8644 1.73362 0.022822 36.2005 -14.8326 -4.47439 5.94524 14.039 21.6366 -9.65362 9.6169 -1.80596 -45.235 3.75586 -3.72056 -25.0208 -16.6583 13.1831 11.4785 36.6505 -40.3304 5.82328 9.61819 -0.917488 -0.61249 -20.0889 -8.22056 -17.1389 -24.8428 -13.3309 2.21084 8.15893 -19.7105 14.6938 -4.8165 -0.527179 0.0462048 0.000530889 0.662642 
46.511 94.0181 13.3326 -5.05057 -6.78687 -78.8029 -7.91708 11.0759 -7.33075 1.10228 29.6888 19.1084 -10.2217 -36.3333 -2.51919 -1.31417e-009 8.75239e-006 -1.47403e-008 -2.79701 18.6585 -2.51058 1.13232 0.124496 -3.08306 37.3155 1.74507 0.0112549 37.0488 -14.7464 -5.16876 5.63249 15.5326 20.3607 -8.46709 9.65246 -1.77772 -45.2897 3.76351 -3.7268 -24.2783 -16.5114 11.7308 11.3147 36.821 -39.556 5.82328 9.61819 -0.917488 -0.11677 -19.0088 -8.33508 -16.8979 -23.4293 -13.0845 2.36905 6.10015 -22.2357 14.9994 -8.49758 -0.0688297 0.0462048 0.000530889 0.662642 
49.4279 94.7916 13.8139 -6.0349 -6.26067 -81.454 -8.62484 9.73352 -5.743 1.14451 30.2016 20.2289 -9.82061 -34.6399 -2.25819 -1.31417e-009 8.75239e-006 -1.47403e-008 -1.57054 18.3941 -1.93545 -1.17536 0.0285623 -1.89025 37.4717 1.75876 0.0295961 37.6891 -15.7673 -4.73031 4.90536 21.7119 17.4912 -6.77969 9.68619 -1.39787 -45.5 3.79807 -3.76058 -23.4725 -16.8793 11.5781 10.9373 37.0042 -38.2164 5.82328 9.61819 -0.917488 -0.0555038 -17.3713 -7.78161 -15.6545 -24.0583 -13.4341 3.09542 10.0554 -24.6106 14.0015 -9.04806 -0.00701333 0.0462048 0.000530889 0.662642 
51.8748 95.8036 14.229 -6.85012 -5.17113 -83.7198 -8.47114 9.37509 -4.64988 1.17597 28.6542 21.7061 -8.59222 -32.718 -1.7987 -1.31417e-009 8.75239e-006 -1.47403e-008 -0.0890243 17.9013 -1.76991 -2.76983 -0.124991 -1.23934 37.3333 1.77055 0.0683613 38.0315 -18.3654 -3.41335 4.77871 29.768 14.5568 -5.84909 9.6986 -0.94852 -45.6291 3.81646 -3.77575 -23.2438 -17.3525 12.4026 10.5132 37.0757 -36.9795 5.82328 9.61819 -0.917488 -0.264454 -15.8449 -6.49148 -13.9002 -25.2914 -17.0619 2.08751 18.6739 -22.0664 12.6615 -8.89197 -0.0426158 0.0462048 0.000530889 0.662642 
53.9656 96.7924 14.4375 -7.54068 -4.1739 -84.909 -7.9036 9.48161 -4.22073 1.23246 26.6153 22.495 -7.37115 -30.6431 -1.37901 -1.31417e-009 8.75239e-006 -1.47403e-008 0.105935 17.4133 -1.78205 -2.80164 -0.228061 -1.26094 37.0669 1.77489 0.101202 38.4007 -19.2001 -2.07058 5.01792 32.1056 13.5019 -5.86563 9.70427 -1.08154 -45.5398 3.79091 -3.74076 -23.8405 -17.0104 13.3303 9.91794 36.7962 -35.9894 5.82328 9.61819 -0.917488 -0.303503 -14.9548 -4.95727 -12.1428 -25.8403 -19.8394 -1.4396 28.4726 -16.8014 11.4198 -10.3338 0.0787271 0.0462048 0.000530889 0.662642 
55.8949 97.6789 14.4362 -7.90936 -3.35377 -85.3718 -7.04037 9.26085 -3.24927 1.44994 24.9359 21.5924 -6.48583 -28.7086 -1.08396 -1.31417e-009 8.75239e-006 -1.47403e-008 -0.621309 16.9971 -1.7436 -1.91329 -0.454367 -1.54251 36.8319 1.7712 0.113076 38.7109 -17.3921 -1.24182 5.14958 27.995 14.6867 -6.50446 9.70579 -1.61434 -45.3328 3.74567 -3.68603 -24.7983 -15.7972 14.0179 9.35388 36.3047 -35.4856 5.82328 9.61819 -0.917488 0.0521086 -14.6682 -3.71308 -10.5986 -25.7336 -14.0288 -1.173 37.6426 -18.5758 10.4162 -12.6561 0.258694 0.0462048 0.000530889 0.662642 
57.693 98.3486 14.3127 -7.94448 -2.69519 -85.7881 -6.09099 8.62733 -1.34081 1.66129 23.5946 19.6566 -5.59096 -27.4476 -0.852293 -1.31417e-009 8.75239e-006 -1.47403e-008 -1.36327 16.5504 -1.59434 -1.31085 -0.814507 -1.67469 36.6278 1.76411 0.11396 39.0049 -14.6272 -0.51846 5.19261 22.7875 16.6854 -7.56819 9.68129 -1.80629 -45.1968 3.71876 -3.65516 -25.5107 -14.6601 14.5625 9.1372 36.0002 -35.5378 5.82328 9.61819 -0.917488 0.588558 -14.7006 -2.98152 -8.99537 -25.2363 -9.68621 -1.33361 45.8607 -17.9425 10.5597 -14.1289 0.394362 0.0462048 0.000530889 0.662642 
59.3559 98.7551 14.1562 -7.93867 -2.27221 -86.376 -5.36102 7.9441 0.538717 1.65189 22.6033 18.0596 -4.88826 -26.8136 -0.700295 -1.31417e-009 8.75239e-006 -1.47403e-008 -1.84642 16.066 -1.35465 -1.33575 -1.03515 -1.58897 36.396 1.75672 0.115816 39.2988 -12.3915 0.600591 4.96759 20.2393 18.278 -8.53262 9.63071 -1.48096 -45.2093 3.71847 -3.6527 -25.8659 -14.2623 14.9056 9.12732 35.9644 -35.5888 5.82328 9.61819 -0.917488 1.00627 -14.7822 -2.78438 -7.57185 -23.7621 -6.26396 -1.51022 52.215 -17.2167 11.3958 -15.2945 0.553442 0.0462048 0.000530889 0.662642 
60.904 99.0855 14.0094 -7.92171 -2.06223 -86.8641 -4.92033 7.30816 1.6038 1.4916 21.7959 17.1947 -4.87724 -26.16 -0.672265 -1.31417e-009 8.75239e-006 -1.47403e-008 -2.15529 15.4728 -1.09597 -1.50755 -1.06988 -1.42714 36.1753 1.74914 0.117729 39.4277 -10.7063 1.92435 4.61155 19.5333 19.3147 -9.00813 9.59018 -1.12471 -45.3414 3.735 -3.66426 -26.0731 -14.2106 14.893 8.85662 35.9034 -34.9433 5.82328 9.61819 -0.917488 1.1675 -14.644 -3.06444 -6.44112 -21.0752 -3.72611 -1.6465 55.9354 -17.2273 11.2128 -16.8439 0.686047 0.0462048 0.000530889 0.662642 
62.2892 99.4204 13.8647 -7.4852 -2.03301 -87.0576 -4.71499 6.25543 1.93658 1.29922 21.1388 16.7287 -5.36857 -25.345 -0.719354 -1.31417e-009 8.75239e-006 -1.47403e-008 -2.34081 14.4348 -0.903596 -1.67511 -1.23863 -1.27197 36.0299 1.74237 0.118706 39.357 -9.65348 2.98754 4.36275 19.3813 19.8866 -9.08322 9.57704 -0.977547 -45.5432 3.76394 -3.68882 -26.2272 -13.8169 14.6357 8.16601 35.596 -33.5667 5.82328 9.61819 -0.917488 1.01956 -14.0728 -3.64041 -5.746 -17.761 -2.00302 -1.66531 56.6374 -17.0411 10.0947 -17.4999 0.652545 0.0462048 0.000530889 0.662642 
63.4929 99.6891 13.7198 -6.47857 -2.15287 -87.0993 -4.69269 4.62663 1.91882 1.05661 20.593 16.4837 -5.68575 -24.5966 -0.735404 -1.31417e-009 8.75239e-006 -1.47403e-008 -2.29818 12.8613 -0.797476 -2.11187 -1.6706 -1.09213 35.8863 1.73647 0.117756 39.4139 -9.51986 3.6921 4.22349 19.75 19.9011 -9.14692 9.56581 -0.853132 -45.6979 3.79499 -3.72434 -26.3453 -13.1526 14.4469 7.39564 35.1679 -32.104 5.82328 9.61819 -0.917488 0.609439 -13.1441 -4.25959 -5.57094 -14.0159 -1.02598 -1.49503 53.5356 -15.6557 10.1987 -16.7639 0.594958 0.0462048 0.000530889 0.662642 
